HIERARCHY
ROOT RootJoint
{
    OFFSET   0.000000   0.000000   0.000000
    CHANNELS 6 Xposition Yposition Zposition Xrotation Yrotation Zrotation
    JOINT pelvis_lowerback
    {
        OFFSET   0.000000   0.093605   0.000000
        CHANNELS 3 Xrotation Yrotation Zrotation
        JOINT lowerback_torso
        {
            OFFSET   0.000000   0.100000   0.000000
            CHANNELS 3 Xrotation Yrotation Zrotation
            JOINT torso_head
            {
                OFFSET   0.000000   0.282350   0.000000
                CHANNELS 3 Xrotation Yrotation Zrotation
                End Site
                {
                    OFFSET   0.000000   0.192650   0.000000
                }
            }
            JOINT rTorso_Clavicle
            {
                OFFSET  -0.001000   0.157500   0.000000
                CHANNELS 3 Xrotation Yrotation Zrotation
                JOINT rShoulder
                {
                    OFFSET  -0.117647   0.000000   0.000000
                    CHANNELS 3 Xrotation Yrotation Zrotation
                    JOINT rElbow
                    {
                        OFFSET  -0.245000   0.000000   0.000000
                        CHANNELS 3 Xrotation Yrotation Zrotation
                        JOINT rWrist
                        {
                            OFFSET  -0.240000   0.000000   0.000000
                            CHANNELS 3 Xrotation Yrotation Zrotation
                            End Site
                            {
                                OFFSET  -0.116353  -0.002500   0.000000
                            }
                        }
                    }
                }
            }
            JOINT lTorso_Clavicle
            {
                OFFSET   0.001000   0.157500   0.000000
                CHANNELS 3 Xrotation Yrotation Zrotation
                JOINT lShoulder
                {
                    OFFSET   0.117647   0.000000   0.000000
                    CHANNELS 3 Xrotation Yrotation Zrotation
                    JOINT lElbow
                    {
                        OFFSET   0.245000   0.000000   0.000000
                        CHANNELS 3 Xrotation Yrotation Zrotation
                        JOINT lWrist
                        {
                            OFFSET   0.240000   0.000000   0.000000
                            CHANNELS 3 Xrotation Yrotation Zrotation
                            End Site
                            {
                                OFFSET   0.116353  -0.002500   0.000000
                            }
                        }
                    }
                }
            }
        }
    }
    JOINT rHip
    {
        OFFSET  -0.100000  -0.051395   0.000000
        CHANNELS 3 Xrotation Yrotation Zrotation
        JOINT rKnee
        {
            OFFSET   0.000000  -0.410000   0.000000
            CHANNELS 3 Xrotation Yrotation Zrotation
            JOINT rAnkle
            {
                OFFSET   0.000000  -0.390000   0.000000
                CHANNELS 3 Xrotation Yrotation Zrotation
                JOINT rToeJoint
                {
                    OFFSET   0.000000  -0.050000   0.130000
                    CHANNELS 3 Xrotation Yrotation Zrotation
                    End Site
                    {
                        OFFSET  -0.010000   0.002000   0.060000
                    }
                }
            }
        }
    }
    JOINT lHip
    {
        OFFSET   0.100000  -0.051395   0.000000
        CHANNELS 3 Xrotation Yrotation Zrotation
        JOINT lKnee
        {
            OFFSET   0.000000  -0.410000   0.000000
            CHANNELS 3 Xrotation Yrotation Zrotation
            JOINT lAnkle
            {
                OFFSET   0.000000  -0.390000   0.000000
                CHANNELS 3 Xrotation Yrotation Zrotation
                JOINT lToeJoint
                {
                    OFFSET   0.000000  -0.050000   0.130000
                    CHANNELS 3 Xrotation Yrotation Zrotation
                    End Site
                    {
                        OFFSET   0.010000   0.002000   0.060000
                    }
                }
            }
        }
    }
}
MOTION
Frames: 12
Frame Time:   0.008333
 -2.376719   0.925631   3.975860   0.000000   0.000000   0.000000   0.000000   0.000000   0.000000   0.000000   0.000000   0.000000   0.000000   0.000000   0.000000   0.000000   0.000000   0.000000   0.000000   0.000000   0.000000   0.000000   0.000000   0.000000   0.000000   0.000000   0.000000   0.000000   0.000000   0.000000   0.000000   0.000000   0.000000   0.000000   0.000000   0.000000   0.000000   0.000000   0.000000   0.000000   0.000000   0.000000   0.000000   0.000000   0.000000   0.000000   0.000000   0.000000   0.000000   0.000000   0.000000   0.000000   0.000000   0.000000   0.000000   0.000000   0.000000   0.000000   0.000000   0.000000   0.000000   0.000000   0.000000
 -2.376649   0.925963   3.975077   0.067520   0.124182  -0.003192  -0.142559   0.001777  -0.054757   0.456079  -0.219243   0.075638  -0.147862   0.001552   0.034207   0.454788  -0.410155   0.047100   0.832676   0.196390   2.210847   0.036137   1.795989  -0.026620   0.168239  -0.746871  -2.560457   0.403224   0.353525   0.028775   1.293902   0.227440  -2.207309   0.038372  -2.003044   0.036835   0.218189   0.622276   2.294450  -0.473242  -0.112660  -0.197712   1.050151   0.001833   0.000083  -0.651326  -0.453000   0.049891   0.056584   0.000074  -0.000218  -0.489812  -0.189385   0.173350   0.807482  -0.001211  -0.000446  -0.953316   0.360967   0.174328   0.468856  -0.001400   0.001216
 -2.376522   0.926566   3.973912   0.061564   0.281269  -0.019051  -0.167950  -0.011166  -0.095288   1.020203  -0.449545   0.174647  -0.250887  -0.000903   0.067567   0.894221  -0.732679   0.737651   1.636279   0.505373   4.931203   0.083687   3.542391  -0.048884   0.386726  -0.962619  -4.479086   0.799890   0.617824  -0.554543   2.574908   0.318095  -4.911639   0.088583  -3.941527   0.067472   0.502096   0.699690   3.959054  -0.912886  -0.223895  -0.557143   2.148952   0.005046   0.000346  -1.254239  -0.883808   0.089068   0.096781   0.000176  -0.000311  -0.987348  -0.369533   0.499419   1.618830  -0.003206  -0.000434  -1.847458   0.701124   0.345011   0.856129  -0.002721   0.002083
 -2.376340   0.927090   3.972543   0.040696   0.441827  -0.044259  -0.122496  -0.027098  -0.116293   1.611115  -0.669686   0.289476  -0.333661  -0.003502   0.097813   1.306649  -0.951754   1.827681   2.401777   0.909974   7.978573   0.131033   5.194019  -0.065536   0.610289  -0.969449  -5.671698   1.170901   0.777905  -1.520692   3.833930   0.277535  -7.933814   0.138474  -5.773966   0.090719   0.790726   0.564703   4.941881  -1.331899  -0.324864  -1.049796   3.185156   0.008696   0.000462  -1.815923  -1.288171   0.119906   0.130884   0.000284  -0.000355  -1.499831  -0.539260   0.946456   2.362712  -0.005356  -0.000223  -2.683768   1.018412   0.510634   1.203728  -0.003922   0.002674
 -2.376111   0.927272   3.971111   0.023763   0.591628  -0.076110  -0.032022  -0.040657  -0.118027   2.198782  -0.873679   0.418598  -0.404567  -0.005862   0.124937   1.691091  -1.082372   3.170886   3.113402   1.393372  11.187722   0.172408   6.751790  -0.077028   0.834887  -0.857362  -6.287436   1.512751   0.854830  -2.724948   5.053945   0.115991 -11.130332   0.182061  -7.501569   0.107280   1.078053   0.310185   5.398112  -1.733072  -0.414672  -1.649680   4.147094   0.012228   0.000323  -2.340714  -1.667426   0.143700   0.155999   0.000359  -0.000360  -2.020839  -0.701905   1.487801   3.036727  -0.007342   0.000025  -3.466643   1.314012   0.670748   1.514838  -0.004912   0.003010
 -2.375852   0.926888   3.969723   0.016756   0.726712  -0.111856   0.085055  -0.049215  -0.103351   2.769017  -1.058659   0.557254  -0.465879  -0.008150   0.150551   2.047613  -1.146323   4.692723   3.745523   1.921517  14.374483   0.204642   8.218393  -0.083796   1.057585  -0.664738  -6.439285   1.825035   0.875109  -4.104690   6.178208  -0.140725 -14.296901   0.215764  -9.127193   0.117388   1.360214  -0.023254   5.419091  -2.113417  -0.493220  -2.333536   5.039461   0.015341  -0.000023  -2.831336  -2.022973   0.161540   0.173029   0.000390  -0.000338  -2.540725  -0.860000   2.101140   3.649049  -0.009022   0.000253  -4.199472   1.589133   0.824958   1.793422  -0.005663   0.003147
 -2.375577   0.925776   3.968453   0.021104   0.846408  -0.149815   0.214724  -0.052667  -0.075175   3.313329  -1.225231   0.702806  -0.518512  -0.010278   0.174814   2.376128  -1.167414   6.298744   4.303067   2.472426  17.478000   0.227122   9.595193  -0.086679   1.273703  -0.427291  -6.282928   2.107723   0.862309  -5.566375   7.209184  -0.465687 -17.371614   0.238993 -10.653212   0.122203   1.631758  -0.401172   5.156594  -2.469650  -0.560692  -3.080584   5.869251   0.017898  -0.000496  -3.289955  -2.356091   0.174388   0.184192   0.000387  -0.000302  -3.050825  -1.014938   2.767925   4.208226  -0.010350   0.000447  -4.885226   1.845045   0.973006   2.043914  -0.006182   0.003140
 -2.375091   0.923352   3.966663   0.128904   0.760068  -0.225154   0.321956   0.013849   0.093037   3.875926  -1.337672   0.803638  -0.670092  -0.166525   0.210695   2.689300  -1.022759   7.404750   5.034822   3.186285  20.201867   0.250268  11.303295  -0.098767   1.366321  -0.442400  -5.208002   2.583589   0.884638  -6.484320   8.373182  -1.059321 -20.366720   0.262120 -12.466577   0.139073   1.818889  -0.679005   4.116612  -3.157700  -0.708684  -3.746184   7.051848   0.021558  -0.004315  -3.763892  -2.751473   0.303220   0.226165   0.000529  -0.000497  -3.629003  -0.893538   3.386810   4.421402  -0.009286   0.000598  -4.995465   2.112329   1.164715   2.363579  -0.006921   0.003558
 -2.374330   0.922443   3.964826   0.217283   0.739859   0.003253   0.483732   0.045805   0.058983   4.447498  -1.456567   0.809605  -0.807316  -0.322879   0.245669   2.945713  -0.784881   8.419108   5.661451   3.956237  22.675442   0.261889  12.932671  -0.106679   1.487443  -0.285038  -4.283332   2.996807   0.812106  -7.332323   9.407124  -1.731626 -23.094750   0.273552 -14.189009   0.149251   2.027473  -1.118513   3.177764  -3.792199  -0.850016  -4.641348   8.159894   0.023215  -0.006747  -4.196239  -3.127454   0.417862   0.329242   0.000905  -0.000968  -4.246315  -0.609526   3.132099   5.087625  -0.007171   0.002183  -4.572073   2.495298   1.084098   2.699988  -0.005215   0.004776
 -2.374013   0.921918   3.963047   0.346188   0.645518   0.101073   0.639939   0.118977   0.131390   4.978747  -1.530947   0.853102  -0.928816  -0.468408   0.281591   3.156863  -0.505266   9.251834   6.199700   4.739330  24.915623   0.263278  14.474903  -0.110346   1.617252  -0.011058  -3.466655   3.365041   0.713872  -8.036708  10.332232  -2.424046 -25.587254   0.274527 -15.813018   0.153285   2.231216  -1.642863   2.318705  -4.440287  -0.968629  -5.255873   9.186773   0.022652  -0.008823  -4.601278  -3.477592   0.522362   0.413450   0.001011  -0.001257  -4.767406  -0.454090   3.017134   5.577289  -0.005605   0.002115  -4.394898   2.742491   1.195981   3.049934  -0.004416   0.004830
 -2.374023   0.921546   3.961336   0.509785   0.541776   0.148232   0.794430   0.199438   0.232356   5.469193  -1.582443   0.917185  -1.040800  -0.604597   0.319682   3.332917  -0.216200   9.943000   6.664042   5.505604  26.945339   0.257233  15.924967  -0.110666   1.745660   0.314221  -2.783411   3.695686   0.610041  -8.613441  11.162541  -3.107576 -27.851892   0.267804 -17.334390   0.152455   2.423000  -2.182649   1.580124  -5.074284  -1.078777  -5.715871  10.134082   0.020973  -0.010117  -4.981277  -3.803573   0.618554   0.478206   0.000974  -0.001360  -5.252589  -0.333747   2.974049   5.957402  -0.004456   0.001825  -4.292363   2.960420   1.322588   3.354426  -0.003826   0.004552
 -2.374279   0.921239   3.959713   0.697897   0.456848   0.181076   0.947933   0.279356   0.338859   5.926175  -1.622228   0.986645  -1.144018  -0.732171   0.356793   3.484359   0.062719  10.520186   7.068171   6.238135  28.790627   0.246175  17.282448  -0.108543   1.868307   0.649892  -2.220513   3.995949   0.511747  -9.084059  11.911127  -3.767614 -29.912106   0.255894 -18.755089   0.147978   2.601552  -2.703852   0.957919  -5.674627  -1.180968  -6.083768  11.012183   0.018816  -0.010612  -5.336938  -4.107457   0.706780   0.531412   0.000883  -0.001354  -5.719622  -0.229963   2.961575   6.266939  -0.003587   0.001568  -4.227842   3.160189   1.448651   3.628512  -0.003355   0.004225
